# xmcd CD database file
#
# Track frame offsets:
#	150
#	21692
#	48522
#	64827
#	82037
#	98702
#	117392
#	136450
#	159677
#	183152
#	200782
#	218407
#	236807
#	258027
#	276105
#	292710
#
# Disc length: 4193 seconds
#
# Revision: 1
# Processed by: cddbd v1.5.1PL0 Copyright (c) Steve Scherf et al.
# Submitted via: CDex 1.51
#
DISCID=ec105f10
DTITLE=SION - 俺の声 (Disc.2)
DYEAR=2001
DGENRE=Blues
TTITLE0=蛍
TTITLE1=2月というだけの夜
TTITLE2=だからこんな俺がきらいだ
TTITLE3=カラス鳴いて
TTITLE4=帰り道
TTITLE5=かんばれがんばれ
TTITLE6=せっかく生まれてきたからよ
TTITLE7=通報されるくらいに
TTITLE8=午前3時の街角で
TTITLE9=お前がいる
TTITLE10=薄紫
TTITLE11=エレファントソング
TTITLE12=タクシー
TTITLE13=あまった優しさ
TTITLE14=砂の城
TTITLE15=俺の声 (2001 VERSION)
EXTD=YEAR: 2001
EXTT0=
EXTT1=
EXTT2=
EXTT3=
EXTT4=
EXTT5=
EXTT6=
EXTT7=
EXTT8=
EXTT9=
EXTT10=
EXTT11=
EXTT12=
EXTT13=
EXTT14=
EXTT15=
PLAYORDER=
